<svg id="SvgjsSvg1026" width="288" height="288" xmlns="http://www.w3.org/2000/svg" version="1.1" xmlns:xlink="http://www.w3.org/1999/xlink" xmlns:svgjs="http://svgjs.com/svgjs">
    <defs id="SvgjsDefs1027"></defs>
    <g id="SvgjsG1028">
        <svg xmlns="http://www.w3.org/2000/svg" fill-rule="evenodd" stroke-linejoin="round" stroke-miterlimit="2" clip-rule="evenodd" viewBox="0 0 32 32" width="288" height="288">
            <g transform="translate(0 -104)" fill="#fc5185" class="color000 svgShape">
                <path fill="#4ad7b1" d="M32,2.617C32,1.277 30.657,0.191 29,0.191C23.545,0.191 8.455,0.191 3,0.191C1.343,0.191 0,1.277 0,2.617L-0,18.383C0,19.723 1.343,20.809 3,20.809C8.455,20.809 23.545,20.809 29,20.809C30.657,20.809 32,19.723 32,18.383L32,2.617Z" transform="matrix(1 0 0 1.23684 0 110.263)" class="color5490f2 svgShape"></path>
                <path fill="#293dcd" d="M32.875,3.923C32.875,1.502 30.357,-0.462 27.25,-0.462L4.75,-0.462C1.643,-0.462 -0.875,1.502 -0.875,3.923C-0.875,7.495 -0.875,13.505 -0.875,17.077C-0.875,19.498 1.643,21.462 4.75,21.462L27.25,21.462C30.357,21.462 32.875,19.498 32.875,17.077C32.875,13.505 32.875,7.495 32.875,3.923Z" transform="matrix(.53333 0 0 .68421 7.467 104.316)" class="colord5242e svgShape"></path>
                <path fill="#f0f0f0" d="M15.431,4.195C15.16,3.585 14.606,3.2 14,3.2C13.394,3.2 12.84,3.585 12.569,4.195L8.569,13.195C8.321,13.753 8.347,14.416 8.639,14.946C8.93,15.477 9.445,15.8 10,15.8L18,15.8C18.555,15.8 19.07,15.477 19.361,14.946C19.653,14.416 19.679,13.753 19.431,13.195L15.431,4.195Z" transform="matrix(0 .625 -.55556 0 21.278 102.75)" class="colorf2f2f2 svgShape"></path>
                <path fill="#f0f0f0" d="M223,71L223,78.5C223,79.328 223.448,80 224,80C224.552,80 225,79.328 225,78.5L225,71C225,70.172 224.552,69.5 224,69.5C223.448,69.5 223,70.172 223,71Z" transform="matrix(-1 0 0 -.66667 240 174.333)" class="colorf2f2f2 svgShape"></path>
                <path fill="#f0f0f0" d="M219,72L219,76C219,76.781 219.448,77.414 220,77.414C220.552,77.414 221,76.781 221,76L221,72C221,71.219 220.552,70.586 220,70.586C219.448,70.586 219,71.219 219,72Z" transform="matrix(-.7071 -.7071 .5 -.5 135.563 318.562)" class="colorf2f2f2 svgShape"></path>
                <path fill="#f0f0f0" d="M221,72L221,76C221,76.781 220.552,77.414 220,77.414C219.448,77.414 219,76.781 219,76L219,72C219,71.219 219.448,70.586 220,70.586C220.552,70.586 221,71.219 221,72Z" transform="matrix(.7071 .7071 .5 -.5 298.488 -152.028)" class="colorf2f2f2 svgShape"></path>
                <path fill="#f0f0f0" d="M222,80L226,80C226.552,80 227,79.552 227,79C227,78.448 226.552,78 226,78L222,78C221.448,78 221,78.448 221,79C221,79.552 221.448,80 222,80Z" transform="translate(-208 52)" class="colorf2f2f2 svgShape"></path>
            </g>
        </svg>
    </g>
</svg>